<svg width="338" height="54" viewBox="0 0 338 54" fill="none" xmlns="http://www.w3.org/2000/svg">
<path d="M33.4286 27C33.4286 30.5504 30.5504 33.4286 27 33.4286C23.4496 33.4286 20.5714 30.5504 20.5714 27C20.5714 23.4496 23.4496 20.5714 27 20.5714C30.5504 20.5714 33.4286 23.4496 33.4286 27Z" fill="#212121"/>
<path fill-rule="evenodd" clip-rule="evenodd" d="M27 54C40.6021 54 51.855 43.9417 53.7266 30.8571H37.913C36.3245 35.3515 32.0383 38.5714 27 38.5714C21.9617 38.5714 17.6755 35.3515 16.087 30.8571H0.273428C2.14503 43.9417 13.3979 54 27 54ZM16.087 23.1429H0.273428C2.14503 10.0583 13.3979 0 27 0C40.6021 0 51.855 10.0583 53.7266 23.1429H37.913C36.3245 18.6485 32.0383 15.4286 27 15.4286C21.9617 15.4286 17.6755 18.6485 16.087 23.1429ZM33.4286 27C33.4286 30.5504 30.5504 33.4286 27 33.4286C23.4496 33.4286 20.5714 30.5504 20.5714 27C20.5714 23.4496 23.4496 20.5714 27 20.5714C30.5504 20.5714 33.4286 23.4496 33.4286 27Z" fill="#212121"/>
<path d="M100.238 20.296C100.238 22.492 99.734 24.508 98.726 26.344C97.718 28.144 96.17 29.602 94.082 30.718C91.994 31.834 89.402 32.392 86.306 32.392H80.582V46H71.348V8.092H86.306C89.33 8.092 91.886 8.614 93.974 9.658C96.062 10.702 97.628 12.142 98.672 13.978C99.716 15.814 100.238 17.92 100.238 20.296ZM85.604 25.048C87.368 25.048 88.682 24.634 89.546 23.806C90.41 22.978 90.842 21.808 90.842 20.296C90.842 18.784 90.41 17.614 89.546 16.786C88.682 15.958 87.368 15.544 85.604 15.544H80.582V25.048H85.604ZM118.761 46.432C115.809 46.432 113.145 45.802 110.769 44.542C108.429 43.282 106.575 41.482 105.207 39.142C103.875 36.802 103.209 34.066 103.209 30.934C103.209 27.838 103.893 25.12 105.261 22.78C106.629 20.404 108.501 18.586 110.877 17.326C113.253 16.066 115.917 15.436 118.869 15.436C121.821 15.436 124.485 16.066 126.861 17.326C129.237 18.586 131.109 20.404 132.477 22.78C133.845 25.12 134.529 27.838 134.529 30.934C134.529 34.03 133.827 36.766 132.423 39.142C131.055 41.482 129.165 43.282 126.753 44.542C124.377 45.802 121.713 46.432 118.761 46.432ZM118.761 38.44C120.525 38.44 122.019 37.792 123.243 36.496C124.503 35.2 125.133 33.346 125.133 30.934C125.133 28.522 124.521 26.668 123.297 25.372C122.109 24.076 120.633 23.428 118.869 23.428C117.069 23.428 115.575 24.076 114.387 25.372C113.199 26.632 112.605 28.486 112.605 30.934C112.605 33.346 113.181 35.2 114.333 36.496C115.521 37.792 116.997 38.44 118.761 38.44ZM157.842 46L148.662 33.364V46H139.428V6.04H148.662V28.126L157.788 15.868H169.182L156.654 30.988L169.29 46H157.842ZM201.213 30.448C201.213 31.312 201.159 32.212 201.051 33.148H180.153C180.297 35.02 180.891 36.46 181.935 37.468C183.015 38.44 184.329 38.926 185.877 38.926C188.181 38.926 189.783 37.954 190.683 36.01H200.511C200.007 37.99 199.089 39.772 197.757 41.356C196.461 42.94 194.823 44.182 192.843 45.082C190.863 45.982 188.649 46.432 186.201 46.432C183.249 46.432 180.621 45.802 178.317 44.542C176.013 43.282 174.213 41.482 172.917 39.142C171.621 36.802 170.973 34.066 170.973 30.934C170.973 27.802 171.603 25.066 172.863 22.726C174.159 20.386 175.959 18.586 178.263 17.326C180.567 16.066 183.213 15.436 186.201 15.436C189.117 15.436 191.709 16.048 193.977 17.272C196.245 18.496 198.009 20.242 199.269 22.51C200.565 24.778 201.213 27.424 201.213 30.448ZM191.763 28.018C191.763 26.434 191.223 25.174 190.143 24.238C189.063 23.302 187.713 22.834 186.093 22.834C184.545 22.834 183.231 23.284 182.151 24.184C181.107 25.084 180.459 26.362 180.207 28.018H191.763ZM192.411 8.146L179.397 13.6V7.228L192.411 0.963997V8.146ZM204.248 30.88C204.248 27.784 204.824 25.066 205.976 22.726C207.164 20.386 208.766 18.586 210.782 17.326C212.798 16.066 215.048 15.436 217.532 15.436C219.512 15.436 221.312 15.85 222.932 16.678C224.588 17.506 225.884 18.622 226.82 20.026V6.04H236.054V46H226.82V41.68C225.956 43.12 224.714 44.272 223.094 45.136C221.51 46 219.656 46.432 217.532 46.432C215.048 46.432 212.798 45.802 210.782 44.542C208.766 43.246 207.164 41.428 205.976 39.088C204.824 36.712 204.248 33.976 204.248 30.88ZM226.82 30.934C226.82 28.63 226.172 26.812 224.876 25.48C223.616 24.148 222.068 23.482 220.232 23.482C218.396 23.482 216.83 24.148 215.534 25.48C214.274 26.776 213.644 28.576 213.644 30.88C213.644 33.184 214.274 35.02 215.534 36.388C216.83 37.72 218.396 38.386 220.232 38.386C222.068 38.386 223.616 37.72 224.876 36.388C226.172 35.056 226.82 33.238 226.82 30.934ZM271.139 30.448C271.139 31.312 271.085 32.212 270.977 33.148H250.079C250.223 35.02 250.817 36.46 251.861 37.468C252.941 38.44 254.255 38.926 255.803 38.926C258.107 38.926 259.709 37.954 260.609 36.01H270.437C269.933 37.99 269.015 39.772 267.683 41.356C266.387 42.94 264.749 44.182 262.769 45.082C260.789 45.982 258.575 46.432 256.127 46.432C253.175 46.432 250.547 45.802 248.243 44.542C245.939 43.282 244.139 41.482 242.843 39.142C241.547 36.802 240.899 34.066 240.899 30.934C240.899 27.802 241.529 25.066 242.789 22.726C244.085 20.386 245.885 18.586 248.189 17.326C250.493 16.066 253.139 15.436 256.127 15.436C259.043 15.436 261.635 16.048 263.903 17.272C266.171 18.496 267.935 20.242 269.195 22.51C270.491 24.778 271.139 27.424 271.139 30.448ZM261.689 28.018C261.689 26.434 261.149 25.174 260.069 24.238C258.989 23.302 257.639 22.834 256.019 22.834C254.471 22.834 253.157 23.284 252.077 24.184C251.033 25.084 250.385 26.362 250.133 28.018H261.689ZM293.83 46L288.052 37.63L283.192 46H273.202L283.138 30.61L272.932 15.868H283.3L289.078 24.184L293.938 15.868H303.928L293.83 31.042L304.198 46H293.83Z" fill="black"/>
</svg>
