<svg width="29" height="28" viewBox="0 0 29 28" fill="none" xmlns="http://www.w3.org/2000/svg">
<path d="M18.7292 16.3333H17.7746L17.4362 16.0183C18.6204 14.6883 19.3333 12.9617 19.3333 11.0833C19.3333 6.895 15.8171 3.5 11.4792 3.5C7.14125 3.5 3.625 6.895 3.625 11.0833C3.625 15.2717 7.14125 18.6667 11.4792 18.6667C13.4246 18.6667 15.2129 17.9783 16.5904 16.835L16.9167 17.1617V18.0833L22.9583 23.905L24.7587 22.1667L18.7292 16.3333ZM11.4792 16.3333C8.47042 16.3333 6.04167 13.9883 6.04167 11.0833C6.04167 8.17833 8.47042 5.83333 11.4792 5.83333C14.4879 5.83333 16.9167 8.17833 16.9167 11.0833C16.9167 13.9883 14.4879 16.3333 11.4792 16.3333Z" fill="#B4B1B1"/>
</svg>
